<?xml version="1.0" standalone="no"?>
<!DOCTYPE svg PUBLIC "-//W3C//DTD SVG 20010904//EN"
 "http://www.w3.org/TR/2001/REC-SVG-20010904/DTD/svg10.dtd">
<svg version="1.0" xmlns="http://www.w3.org/2000/svg"
 width="395.000000pt" height="395.000000pt" viewBox="0 0 395.000000 395.000000"
 preserveAspectRatio="xMidYMid meet">
<metadata>
Created by potrace 1.11, written by Peter Selinger 2001-2013
</metadata>
<g transform="translate(0.000000,395.000000) scale(0.100000,-0.100000)"
fill="#000000" stroke="none">
<path d="M18 3939 c-7 -5 -10 -494 -10 -1520 1 -1616 1 -1602 9 -1579 7 19
340 805 357 845 8 17 64 149 126 295 62 146 170 400 240 565 71 165 158 372
195 460 37 88 71 164 76 169 10 11 378 11 388 0 5 -5 90 -202 191 -439 101
-236 193 -452 205 -480 12 -27 116 -269 230 -536 l208 -486 626 2 c547 1 631
3 667 17 140 54 216 144 244 286 39 196 -52 380 -220 446 -71 28 -67 28 -420
30 -184 2 -354 6 -377 10 -24 4 -46 8 -50 8 -26 1 -182 64 -232 93 -292 171
-424 548 -320 910 32 111 115 241 214 333 113 106 262 174 430 198 27 4 296 7
597 7 394 0 548 3 549 11 0 6 1 89 2 184 2 147 0 172 -13 173 -110 4 -3905 2
-3912 -2z"/>
<path d="M2846 3173 c-186 -34 -299 -180 -298 -383 2 -170 83 -298 228 -360
58 -24 64 -24 364 -26 168 -1 339 -5 380 -8 131 -10 287 -65 377 -132 17 -13
35 -24 40 -24 4 0 8 213 7 472 l-1 473 -517 0 c-353 0 -536 -4 -580 -12z"/>
<path d="M1190 2649 c-5 -13 -140 -337 -299 -719 l-290 -695 305 -3 c168 -1
440 -1 603 0 l298 3 -296 712 c-164 392 -300 715 -304 719 -3 4 -11 -4 -17
-17z"/>
<path d="M3895 994 c-62 -45 -193 -107 -260 -124 -27 -6 -59 -14 -70 -17 -11
-3 -276 -6 -590 -7 -351 -1 -569 -6 -568 -12 2 -11 345 -817 350 -824 8 -9
1175 -6 1180 4 4 6 12 1016 8 1016 0 0 -23 -16 -50 -36z"/>
<path d="M441 840 c-4 -3 -31 -66 -61 -140 -29 -74 -61 -153 -70 -175 -13 -30
-182 -446 -206 -510 -5 -11 2200 -15 2211 -4 5 6 -121 317 -200 494 -7 17 -43
100 -79 185 l-66 155 -761 0 c-418 0 -764 -2 -768 -5z"/>
</g>
</svg>
